<svg xmlns="http://www.w3.org/2000/svg" xmlns:xlink="http://www.w3.org/1999/xlink" viewBox="0 0 56 56">
  <defs>
    <style>
      .cls-1 {
        clip-path: url(#clip-Copy);
      }

      .cls-2 {
        fill: #787877;
        stroke: #787877;
        stroke-width: 0.5px;
      }
    </style>
    <clipPath id="clip-Copy">
      <rect width="56" height="56"/>
    </clipPath>
  </defs>
  <g id="Copy" class="cls-1">
    <g id="noun_copy_1087213" transform="translate(-3 4)">
      <path id="Path_2001" data-name="Path 2001" class="cls-2" d="M25.77,7a2,2,0,0,0-1.991,1.991v4.381H20.991A2,2,0,0,0,19,15.363v23.9a2,2,0,0,0,1.991,1.991h15.93a2,2,0,0,0,1.991-1.991V34.878H41.7a2,2,0,0,0,1.991-1.991V14.567a.4.4,0,0,0-.112-.286L36.411,7.112A.4.4,0,0,0,36.125,7Zm0,.8h9.956v6.77a.4.4,0,0,0,.4.4H42.9V32.886A1.184,1.184,0,0,1,41.7,34.081H25.77a1.184,1.184,0,0,1-1.195-1.195V8.991A1.184,1.184,0,0,1,25.77,7.8Zm10.753.572,5.8,5.8h-5.8Zm-15.532,5.8h2.788V32.886a2,2,0,0,0,1.991,1.991H38.116v4.381a1.184,1.184,0,0,1-1.195,1.195H20.991A1.184,1.184,0,0,1,19.8,39.258v-23.9A1.184,1.184,0,0,1,20.991,14.168Z" transform="translate(0 0)"/>
    </g>
  </g>
</svg>
