<svg xmlns="http://www.w3.org/2000/svg" xmlns:xlink="http://www.w3.org/1999/xlink" viewBox="0 0 56 56">
  <defs>
    <style>
      .cls-1 {
        clip-path: url(#clip-finish);
      }

      .cls-2 {
        fill: #787877;
      }
    </style>
    <clipPath id="clip-finish">
      <rect width="56" height="56"/>
    </clipPath>
  </defs>
  <g id="finish" class="cls-1">
    <g id="noun_racing_flag_1298802" data-name="noun_racing flag_1298802" transform="translate(-7.278 2.479)">
      <path id="Path_2011" data-name="Path 2011" class="cls-2" d="M51.842,23.26V29.7a25.391,25.391,0,0,1,6.442-1.848V21.412A25.373,25.373,0,0,0,51.842,23.26Z" transform="translate(-16.677 -8.4)"/>
      <path id="Path_2012" data-name="Path 2012" class="cls-2" d="M41.607,6.57a25.391,25.391,0,0,0-6.442,1.848,25.391,25.391,0,0,1-6.442,1.848,8.68,8.68,0,0,1-5.371-1.139V8.955h-.3c-.258-.163-.515-.34-.773-.537v.537h0V44.521h1.074V28.453c6.085,3.542,12.17-1.975,18.255-2.557a8.736,8.736,0,0,1,6.442,1.848V8.418A8.736,8.736,0,0,0,41.607,6.57Zm5.368,14.022a8.678,8.678,0,0,0-5.368-1.138v5.373a25.376,25.376,0,0,0-6.442,1.843V21.3a25.391,25.391,0,0,1-6.442,1.848v5.364a8.66,8.66,0,0,1-5.368-1.122v-5.38a8.678,8.678,0,0,0,5.368,1.138V16.708a8.678,8.678,0,0,1-5.368-1.138V10.213a8.666,8.666,0,0,0,5.368,1.122v5.373a25.373,25.373,0,0,0,6.442-1.848V9.491a25.376,25.376,0,0,1,6.442-1.843v5.364a8.678,8.678,0,0,1,5.368,1.138Z" transform="translate(0 0)"/>
    </g>
  </g>
</svg>
