<svg xmlns="http://www.w3.org/2000/svg" xmlns:xlink="http://www.w3.org/1999/xlink" viewBox="0 0 22 17">
  <defs>
    <style>
      .cls-1 {
        clip-path: url(#clip-arrow_left);
      }

      .cls-2 {
        fill: #b4b4be;
      }
    </style>
    <clipPath id="clip-arrow_left">
      <rect width="22" height="17"/>
    </clipPath>
  </defs>
  <g id="arrow_left" class="cls-1">
    <g id="noun_Arrow_816142" transform="translate(-29 -59.291) rotate(180)">
      <path id="Path_2087" data-name="Path 2087" class="cls-2" d="M32.9,28.408a1.177,1.177,0,0,0-.27-.433l-6.489-6.57A1.372,1.372,0,0,0,25.167,21a1.148,1.148,0,0,0-.865.406,1.3,1.3,0,0,0-.379.946,1.351,1.351,0,0,0,.379.946l4.272,4.272H14.325A1.31,1.31,0,0,0,13,28.895a1.294,1.294,0,0,0,1.325,1.325H28.6l-4.3,4.191a1.3,1.3,0,0,0-.379.946,1.206,1.206,0,0,0,.379.946,1.377,1.377,0,0,0,.946.406h.027a1.148,1.148,0,0,0,.865-.406l6.489-6.489c.027-.027.054-.081.081-.108,0-.027.027-.027.054-.081A1.235,1.235,0,0,0,32.9,28.408Z" transform="translate(-63 -97)"/>
    </g>
  </g>
</svg>
