<svg xmlns="http://www.w3.org/2000/svg" xmlns:xlink="http://www.w3.org/1999/xlink" viewBox="0 0 88 88">
  <defs>
    <style>
      .cls-1 {
        clip-path: url(#clip-Estimation_Manager);
      }

      .cls-2 {
        fill: #e2f2ff;
      }

      .cls-3 {
        fill: #005da7;
      }
    </style>
    <clipPath id="clip-Estimation_Manager">
      <rect width="88" height="88"/>
    </clipPath>
  </defs>
  <g id="Estimation_Manager" data-name="Estimation Manager" class="cls-1">
    <g id="Group_4477" data-name="Group 4477" transform="translate(28 27)">
      <circle id="Ellipse_1" data-name="Ellipse 1" class="cls-2" cx="42.5" cy="42.5" r="42.5" transform="translate(-26 -25)"/>
      <g id="noun_Graph_31054" transform="translate(-104 -38)">
        <path id="Path_2038" data-name="Path 2038" class="cls-3" d="M101.912,79.3a5.9,5.9,0,0,0,4.809-9.33l7.538-7.537a5.871,5.871,0,0,0,7.548-.593l6.5,4.731a5.83,5.83,0,0,0-.777,2.875,5.912,5.912,0,1,0,8.714-5.177l5.943-23.776,3.811.955L143.3,32l-6.832,7.063,3.814.951-5.9,23.61a6.16,6.16,0,0,0-.932-.092,5.858,5.858,0,0,0-3.9,1.5l-6.593-4.8a5.817,5.817,0,0,0,.639-2.617,5.912,5.912,0,1,0-10.724,3.418l-7.538,7.537A5.907,5.907,0,1,0,101.912,79.3Z"/>
      </g>
    </g>
  </g>
</svg>
