<svg xmlns="http://www.w3.org/2000/svg" xmlns:xlink="http://www.w3.org/1999/xlink" viewBox="238 0 34 34">
  <defs>
    <style>
      .cls-1 {
        clip-path: url(#clip-Grid_Lines);
      }

      .cls-2 {
        fill: none;
        stroke: #fff;
      }

      .cls-3 {
        fill: #fff;
      }
    </style>
    <clipPath id="clip-Grid_Lines">
      <rect x="238" width="34" height="34"/>
    </clipPath>
  </defs>
  <g id="Grid_Lines" data-name="Grid Lines" class="cls-1">
    <g id="Group_5" data-name="Group 5" transform="translate(212 -498)">
      <line id="Line_297" data-name="Line 297" class="cls-2" y2="30" transform="translate(30 500)"/>
      <line id="Line_298" data-name="Line 298" class="cls-2" y2="30" transform="translate(44 500)"/>
      <line id="Line_299" data-name="Line 299" class="cls-2" y2="30" transform="translate(57 500)"/>
      <line id="Line_300" data-name="Line 300" class="cls-2" x2="28" transform="translate(29.5 500.5)"/>
      <line id="Line_301" data-name="Line 301" class="cls-2" x2="28" transform="translate(29.5 519.5)"/>
      <line id="Line_302" data-name="Line 302" class="cls-2" x2="28" transform="translate(29.5 529.5)"/>
      <line id="Line_303" data-name="Line 303" class="cls-2" x2="28" transform="translate(29.5 510.5)"/>
      <circle id="Ellipse_18" data-name="Ellipse 18" class="cls-3" cx="2" cy="2" r="2" transform="translate(28 499)"/>
      <circle id="Ellipse_20" data-name="Ellipse 20" class="cls-3" cx="2" cy="2" r="2" transform="translate(55 499)"/>
      <circle id="Ellipse_21" data-name="Ellipse 21" class="cls-3" cx="2" cy="2" r="2" transform="translate(28 508)"/>
      <circle id="Ellipse_23" data-name="Ellipse 23" class="cls-3" cx="2" cy="2" r="2" transform="translate(55 508)"/>
      <circle id="Ellipse_24" data-name="Ellipse 24" class="cls-3" cx="2" cy="2" r="2" transform="translate(28 518)"/>
      <circle id="Ellipse_26" data-name="Ellipse 26" class="cls-3" cx="2" cy="2" r="2" transform="translate(55 518)"/>
      <circle id="Ellipse_27" data-name="Ellipse 27" class="cls-3" cx="2" cy="2" r="2" transform="translate(28 527)"/>
      <circle id="Ellipse_29" data-name="Ellipse 29" class="cls-3" cx="2" cy="2" r="2" transform="translate(55 527)"/>
      <circle id="Ellipse_30" data-name="Ellipse 30" class="cls-3" cx="2" cy="2" r="2" transform="translate(42 499)"/>
      <circle id="Ellipse_31" data-name="Ellipse 31" class="cls-3" cx="2" cy="2" r="2" transform="translate(42 508)"/>
      <circle id="Ellipse_32" data-name="Ellipse 32" class="cls-3" cx="2" cy="2" r="2" transform="translate(42 518)"/>
      <circle id="Ellipse_33" data-name="Ellipse 33" class="cls-3" cx="2" cy="2" r="2" transform="translate(42 527)"/>
    </g>
  </g>
</svg>
