<svg xmlns="http://www.w3.org/2000/svg" xmlns:xlink="http://www.w3.org/1999/xlink" viewBox="0 0 32 34">
  <defs>
    <style>
      .cls-1 {
        clip-path: url(#clip-mail);
      }

      .cls-2 {
        fill: #787877;
        stroke: #787877;
      }
    </style>
    <clipPath id="clip-mail">
      <rect width="32" height="34"/>
    </clipPath>
  </defs>
  <g id="mail" class="cls-1">
    <g id="noun_message_1215733" transform="translate(-9 -13)">
      <g id="Group_4475" data-name="Group 4475" transform="translate(10 19)">
        <path id="Path_2014" data-name="Path 2014" class="cls-2" d="M40,21.854A2.857,2.857,0,0,0,37.146,19H12.854A2.857,2.857,0,0,0,10,21.854V38.829a2.857,2.857,0,0,0,2.854,2.854H37.146A2.857,2.857,0,0,0,40,38.829ZM12.854,19.732H37.146a2.115,2.115,0,0,1,1.72.878L26.72,31.11a2.608,2.608,0,0,1-3.4,0L11.171,20.573A2.062,2.062,0,0,1,12.854,19.732Zm26.415,19.1a2.123,2.123,0,0,1-2.122,2.122H12.854a2.123,2.123,0,0,1-2.122-2.122V21.854a2.843,2.843,0,0,1,.073-.585l12,10.39a3.26,3.26,0,0,0,2.2.8,3.4,3.4,0,0,0,2.2-.8l12-10.39a2.843,2.843,0,0,1,.073.585Z" transform="translate(-10 -19)"/>
      </g>
    </g>
  </g>
</svg>
