<svg xmlns="http://www.w3.org/2000/svg" xmlns:xlink="http://www.w3.org/1999/xlink" viewBox="0 0 277 272">
  <defs>
    <style>
      .cls-1 {
        clip-path: url(#clip-Web_1920_1);
      }

      .cls-2 {
        fill: #fff;
      }
    </style>
    <clipPath id="clip-Web_1920_1">
      <rect width="277" height="272"/>
    </clipPath>
  </defs>
  <g id="Web_1920_1" data-name="Web 1920 – 1" class="cls-1">
    <g id="menu" transform="translate(0 -2.471)">
      <g id="Group_1" data-name="Group 1">
        <path id="Path_1" data-name="Path 1" class="cls-2" d="M33.144,2.471A32.293,32.293,0,1,0,65.438,34.765,32.33,32.33,0,0,0,33.144,2.471Z"/>
        <path id="Path_2" data-name="Path 2" class="cls-2" d="M137.663,2.471a32.293,32.293,0,1,0,32.3,32.294A32.331,32.331,0,0,0,137.663,2.471Z"/>
        <path id="Path_3" data-name="Path 3" class="cls-2" d="M243.873,67.059a32.294,32.294,0,1,0-32.294-32.294A32.332,32.332,0,0,0,243.873,67.059Z"/>
        <path id="Path_4" data-name="Path 4" class="cls-2" d="M32.3,170.539A32.295,32.295,0,1,0,0,138.246,32.33,32.33,0,0,0,32.3,170.539Z"/>
        <path id="Path_5" data-name="Path 5" class="cls-2" d="M136.819,170.539a32.295,32.295,0,1,0-32.294-32.293A32.33,32.33,0,0,0,136.819,170.539Z"/>
        <path id="Path_6" data-name="Path 6" class="cls-2" d="M243.038,170.539a32.3,32.3,0,1,0-32.306-32.293A32.325,32.325,0,0,0,243.038,170.539Z"/>
        <path id="Path_7" data-name="Path 7" class="cls-2" d="M33.039,209.108A32.294,32.294,0,1,0,65.332,241.4,32.333,32.333,0,0,0,33.039,209.108Z"/>
        <path id="Path_8" data-name="Path 8" class="cls-2" d="M137.564,209.108A32.294,32.294,0,1,0,169.857,241.4,32.332,32.332,0,0,0,137.564,209.108Z"/>
        <path id="Path_9" data-name="Path 9" class="cls-2" d="M243.771,209.108A32.294,32.294,0,1,0,276.065,241.4,32.33,32.33,0,0,0,243.771,209.108Z"/>
      </g>
    </g>
  </g>
</svg>
