<svg xmlns="http://www.w3.org/2000/svg" xmlns:xlink="http://www.w3.org/1999/xlink" viewBox="0 0 34 34">
  <defs>
    <style>
      .cls-1 {
        clip-path: url(#clip-moduels);
      }

      .cls-2 {
        fill: #b4b4be;
        stroke: #fff;
        stroke-width: 2px;
      }
    </style>
    <clipPath id="clip-moduels">
      <rect width="34" height="34"/>
    </clipPath>
  </defs>
  <g id="moduels" class="cls-1">
    <g id="Group_1" data-name="Group 1" transform="translate(2 2)">
      <g id="Group_1-2" data-name="Group 1">
        <path id="Path_2" data-name="Path 2" class="cls-2" d="M22.3,33.542a4.144,4.144,0,0,0-.356.412,3.643,3.643,0,0,0-.731,2.249,3.737,3.737,0,0,0,6.39,2.642,3.727,3.727,0,0,0,.356-4.891,3.714,3.714,0,0,0-3-1.5A3.659,3.659,0,0,0,22.3,33.542m-5.584.394q-.169-.206-.375-.412A3.6,3.6,0,0,0,13.7,32.436a3.659,3.659,0,0,0-2.661,1.087q-.187.206-.356.412a3.647,3.647,0,0,0-.731,2.249A3.743,3.743,0,0,0,13.7,39.931a3.775,3.775,0,0,0,3.748-3.748,3.647,3.647,0,0,0-.731-2.249M13.7,21.193A3.711,3.711,0,0,0,9.95,24.941,3.743,3.743,0,0,0,13.7,28.688a3.775,3.775,0,0,0,3.748-3.748A3.743,3.743,0,0,0,13.7,21.193m3.748-7.5A3.743,3.743,0,0,0,13.7,9.95,3.711,3.711,0,0,0,9.95,13.7,3.743,3.743,0,0,0,13.7,17.445,3.775,3.775,0,0,0,17.445,13.7m7.514,7.514a3.711,3.711,0,0,0-3.748,3.748A3.737,3.737,0,0,0,27.6,27.6a3.566,3.566,0,0,0,1.106-2.642,3.743,3.743,0,0,0-3.748-3.748m3.748-7.5a3.748,3.748,0,1,0-7.5,0,3.737,3.737,0,0,0,6.39,2.642,3.566,3.566,0,0,0,1.106-2.642M38.844,38.844A3.566,3.566,0,0,0,39.95,36.2,3.75,3.75,0,1,0,36.2,39.95a3.566,3.566,0,0,0,2.642-1.106m0-11.243a3.566,3.566,0,0,0,1.106-2.642A3.75,3.75,0,1,0,36.2,28.707,3.566,3.566,0,0,0,38.844,27.6M39.95,13.716a3.748,3.748,0,1,0-6.408,2.642A3.627,3.627,0,0,0,36.2,17.464a3.775,3.775,0,0,0,3.748-3.748Z" transform="translate(-9.95 -9.95)"/>
      </g>
    </g>
  </g>
</svg>
