<svg xmlns="http://www.w3.org/2000/svg" xmlns:xlink="http://www.w3.org/1999/xlink" viewBox="0 0 32 34">
  <defs>
    <style>
      .cls-1 {
        clip-path: url(#clip-notification);
      }

      .cls-2 {
        fill: #787877;
        stroke: #787877;
      }
    </style>
    <clipPath id="clip-notification">
      <rect width="32" height="34"/>
    </clipPath>
  </defs>
  <g id="notification" class="cls-1">
    <g id="noun_Bell_1085227" transform="translate(-12.992 20.264) rotate(-45)">
      <path id="Path_2013" data-name="Path 2013" class="cls-2" d="M34.687,16.544a10.85,10.85,0,0,0-1.666-5.792l.4-.4a2.454,2.454,0,0,0-1.737-4.188h0a2.429,2.429,0,0,0-1.731.719l-.4.4A10.882,10.882,0,0,0,16.065,8.815L9.643,15.252a2.517,2.517,0,0,0-3.156,3.9l4.393,4.39a4.183,4.183,0,0,0,5.906,5.919l4.393,4.4a2.509,2.509,0,0,0,3.572,0,2.536,2.536,0,0,0,.325-3.163l6.406-6.417a10.871,10.871,0,0,0,3.2-7.745ZM30.638,7.572a1.476,1.476,0,1,1,2.085,2.073l-.27.27-.058-.072a11.072,11.072,0,0,0-1.948-1.952l-.065-.052ZM16.1,28.776a3.218,3.218,0,0,1-4.546-4.556L13.825,26.5Zm7.968,1.546a.489.489,0,0,0,0,.687,1.537,1.537,0,0,1-2.179,2.167l-7.364-7.361-2.6-2.6-4.75-4.757a1.541,1.541,0,0,1,2.163-2.2.486.486,0,0,0,.685,0L16.75,9.505A9.943,9.943,0,0,1,30.79,23.582Z" transform="translate(0 0)"/>
    </g>
  </g>
</svg>
