<svg xmlns="http://www.w3.org/2000/svg" xmlns:xlink="http://www.w3.org/1999/xlink" viewBox="0 0 32 34">
  <defs>
    <style>
      .cls-1 {
        clip-path: url(#clip-profile);
      }

      .cls-2 {
        fill: #787877;
        stroke: #787877;
      }
    </style>
    <clipPath id="clip-profile">
      <rect width="32" height="34"/>
    </clipPath>
  </defs>
  <g id="profile" class="cls-1">
    <g id="noun_User_318294" transform="translate(-4 -3)">
      <path id="Path_2016" data-name="Path 2016" class="cls-2" d="M40.567,22.815a4.717,4.717,0,1,0,4.716,4.717A4.723,4.723,0,0,0,40.567,22.815Zm0,8.471a3.754,3.754,0,1,1,3.754-3.754A3.759,3.759,0,0,1,40.567,31.286Z" transform="translate(-20.567 -11.877)"/>
      <path id="Path_2017" data-name="Path 2017" class="cls-2" d="M20,5A15,15,0,1,0,35,20,15.017,15.017,0,0,0,20,5Zm8.342,26.081a13.844,13.844,0,0,1-16.684,0V29.232c0-4.211,3.274-6.932,8.343-6.932s8.341,2.721,8.341,6.932Zm.963-.8V29.232c0-4.8-3.652-7.894-9.3-7.894s-9.305,3.1-9.305,7.894v1.054a13.877,13.877,0,1,1,18.609,0Z"/>
    </g>
  </g>
</svg>
