<svg xmlns="http://www.w3.org/2000/svg" xmlns:xlink="http://www.w3.org/1999/xlink" viewBox="329 0 34 34">
  <defs>
    <style>
      .cls-1 {
        clip-path: url(#clip-Reports);
      }

      .cls-2 {
        fill: #fff;
      }
    </style>
    <clipPath id="clip-Reports">
      <rect x="329" width="34" height="34"/>
    </clipPath>
  </defs>
  <g id="Reports" class="cls-1">
    <g id="noun_705409_cc" transform="translate(337.017 -12)">
      <g id="Group_1476" data-name="Group 1476" transform="translate(-8 12)">
        <path id="Path_1906" data-name="Path 1906" class="cls-2" d="M15.983,1V16.661a2.131,2.131,0,0,0,.258.979c2.576,4.43,5.1,8.861,7.676,13.291l.155.309a15.772,15.772,0,0,1-16.9-1.649A15.984,15.984,0,0,1,15.983,1Z" transform="translate(0)"/>
        <g id="Group_1475" data-name="Group 1475" transform="translate(18.765 17.949)">
          <path id="Path_1907" data-name="Path 1907" d="M35.5,33.9c2.37,4.121,4.739,8.191,7.109,12.312a16.47,16.47,0,0,0,5.564-6.336,14.867,14.867,0,0,0,1.545-5.924H35.5Zm10.767,5.049a13.383,13.383,0,0,1-3.039,4.121l-4.121-7.058H47.3A17.971,17.971,0,0,1,46.267,38.949Z" transform="translate(-35.5 -33.9)"/>
          <path id="Path_1908" data-name="Path 1908" class="cls-2" d="M35.5,33.9c2.37,4.121,4.739,8.191,7.109,12.312a16.47,16.47,0,0,0,5.564-6.336,14.867,14.867,0,0,0,1.545-5.924H35.5Zm10.767,5.049a13.383,13.383,0,0,1-3.039,4.121l-4.121-7.058H47.3A17.971,17.971,0,0,1,46.267,38.949Z" transform="translate(-35.5 -33.9)"/>
        </g>
        <path id="Path_1909" data-name="Path 1909" class="cls-2" d="M38.07,1.773,34,4.555V1a21.509,21.509,0,0,1,2.627.361,9.4,9.4,0,0,1,1.288.361A.189.189,0,0,1,38.07,1.773Z" transform="translate(-16.008)"/>
        <path id="Path_1910" data-name="Path 1910" class="cls-2" d="M42.243,5.485,34,11.255V8.679L40.285,4.3a5.619,5.619,0,0,1,.567.309A9.155,9.155,0,0,1,42.243,5.485Z" transform="translate(-16.008 -1.6)"/>
        <path id="Path_1911" data-name="Path 1911" class="cls-2" d="M45.385,10.845,34,18.727V16.152L43.943,9.3l.618.618a8.955,8.955,0,0,1,.67.773Z" transform="translate(-16.008 -4.024)"/>
        <path id="Path_1912" data-name="Path 1912" class="cls-2" d="M49.294,17.355,41.258,22.97H37.6L48.315,15.5c.052.1.155.258.206.361A13.887,13.887,0,0,1,49.294,17.355Z" transform="translate(-17.753 -7.03)"/>
        <path id="Path_1913" data-name="Path 1913" class="cls-2" d="M57.521,26.606H51.7L56.9,23l.155.618a9.1,9.1,0,0,1,.206,1.03A14.638,14.638,0,0,1,57.521,26.606Z" transform="translate(-24.59 -10.667)"/>
      </g>
    </g>
  </g>
</svg>
