<svg xmlns="http://www.w3.org/2000/svg" xmlns:xlink="http://www.w3.org/1999/xlink" viewBox="0 0 32 34">
  <defs>
    <style>
      .cls-1 {
        clip-path: url(#clip-setting);
      }

      .cls-2 {
        fill: #787877;
        stroke: #787877;
      }
    </style>
    <clipPath id="clip-setting">
      <rect width="32" height="34"/>
    </clipPath>
  </defs>
  <g id="setting" class="cls-1">
    <g id="noun_Gear_686983" transform="translate(-0.6 -0.749)">
      <g id="Group_4476" data-name="Group 4476" transform="translate(1.6 3.749)">
        <path id="Path_2015" data-name="Path 2015" class="cls-2" d="M21.765,31.748h-.1a1.42,1.42,0,0,1-1.038-.544,5.644,5.644,0,0,0-3.558-1.483,7.373,7.373,0,0,0-4.1.692,4.261,4.261,0,0,0-.89.692,2.741,2.741,0,0,1-.4.3,1.316,1.316,0,0,1-.593.148h-.1a1.833,1.833,0,0,1-.692-.2c-.89-.544-1.779-1.038-2.817-1.68a1.3,1.3,0,0,1-.643-1.532,6.35,6.35,0,0,0-.791-4.7,6.243,6.243,0,0,0-3.41-3.015A1.425,1.425,0,0,1,1.6,19V17.711c0-.544,0-1.186.049-1.779A1.456,1.456,0,0,1,2.391,14.6a3.405,3.405,0,0,1,.4-.148l.1-.049c.4-.148.791-.3,1.087-.445.1-.049.247-.148.346-.2C6.74,11.83,7.729,9.606,7.284,7.036a1.4,1.4,0,0,1,.741-1.582c.939-.494,1.829-.988,2.718-1.483a1.414,1.414,0,0,1,1.779.2A5.763,5.763,0,0,0,16.328,5.8a9.105,9.105,0,0,0,3.46-.593c.1-.049.247-.1.346-.148.3-.2.643-.445.89-.643l.1-.049a2.092,2.092,0,0,1,.346-.247A1.546,1.546,0,0,1,23,4.169c.494.3,1.038.643,1.532.939l1.137.692a1.433,1.433,0,0,1,.692,1.631,6.275,6.275,0,0,0,.741,4.5,6.193,6.193,0,0,0,3.558,3.163,1.356,1.356,0,0,1,.939,1.384c0,1.038,0,2.125-.049,3.262a1.368,1.368,0,0,1-.148.643,1.224,1.224,0,0,1-.988.741,5.869,5.869,0,0,0-1.087.4,7.013,7.013,0,0,0-2.768,3.064,5.83,5.83,0,0,0-.643,3.806,1.547,1.547,0,0,1-.791,1.829c-.494.3-.988.544-1.285.692a14,14,0,0,1-1.285.692A2.239,2.239,0,0,1,21.765,31.748Zm-5.486-3.262a5.981,5.981,0,0,1,.939.049,7.074,7.074,0,0,1,4.349,1.878c.1.148.2.148.2.148v0a1.944,1.944,0,0,0,.3-.1c.494-.247.939-.544,1.285-.692a14,14,0,0,1,1.285-.692c.3-.148.247-.247.2-.445a6.973,6.973,0,0,1,.692-4.646,8.636,8.636,0,0,1,3.262-3.608,5.361,5.361,0,0,1,1.384-.544.383.383,0,0,1,.148-.049c0-.049.049-.1.049-.148.049-1.087.049-2.224.049-3.213,0-.148-.049-.2-.1-.2a8.008,8.008,0,0,1-4.3-3.855,7.441,7.441,0,0,1-.84-5.338c.049-.2,0-.2-.148-.3L23.89,6.048c-.494-.3-1.038-.593-1.532-.939a.359.359,0,0,0-.3-.049c-.049.049-.1.049-.148.1l-.1.049A10.354,10.354,0,0,1,20.727,6a2.649,2.649,0,0,1-.544.247,10.815,10.815,0,0,1-3.954.643A7.485,7.485,0,0,1,11.682,4.96a.257.257,0,0,0-.2-.1.374.374,0,0,0-.2.049c-.89.494-1.779,1.038-2.718,1.532-.148.1-.2.1-.148.346.494,3.064-.593,5.634-3.41,7.908a4.275,4.275,0,0,1-.494.346,6.447,6.447,0,0,1-1.236.494l-.1.049a.375.375,0,0,0-.2.1c-.1.049-.148.1-.148.3,0,.593,0,1.236-.049,1.829V19.1c0,.2.049.247.2.3A7.475,7.475,0,0,1,7.037,22.9a7.468,7.468,0,0,1,.939,5.585c0,.1-.049.148.1.2,1.038.643,1.878,1.137,2.768,1.68a.182.182,0,0,0,.148.049c.049,0,.1-.049.148-.1a5.321,5.321,0,0,1,1.186-.89A8.642,8.642,0,0,1,16.279,28.486Zm.346-4.053h-.4a6.646,6.646,0,0,1-5.338-3.262,6.75,6.75,0,0,1-.741-5.239,6.841,6.841,0,0,1,3.262-4.152,6.767,6.767,0,0,1,3.657-.84,7.645,7.645,0,0,1,1.532.3,6.759,6.759,0,0,1,1.334,12.356A7.16,7.16,0,0,1,16.625,24.433Zm0-12.257a5.65,5.65,0,0,0-2.669.692,5.488,5.488,0,0,0-2.076,7.661,5.674,5.674,0,0,0,4.4,2.669,6.062,6.062,0,0,0,3.064-.692,5.555,5.555,0,0,0-1.087-10.132,5.383,5.383,0,0,0-1.285-.247A.841.841,0,0,1,16.625,12.176Z" transform="translate(-1.6 -3.749)"/>
      </g>
    </g>
  </g>
</svg>
