<svg xmlns="http://www.w3.org/2000/svg" xmlns:xlink="http://www.w3.org/1999/xlink" viewBox="0 0 190 190">
  <defs>
    <style>
      .cls-1 {
        clip-path: url(#clip-Thank_You);
      }

      .cls-2 {
        fill: #ebebeb;
      }

      .cls-3 {
        fill: #fafafa;
      }

      .cls-4 {
        fill: #006cff;
      }
    </style>
    <clipPath id="clip-Thank_You">
      <rect width="190" height="190"/>
    </clipPath>
  </defs>
  <g id="Thank_You" data-name="Thank You" class="cls-1">
    <g id="Group_1" data-name="Group 1" transform="translate(-2 2)">
      <circle id="Ellipse_1" data-name="Ellipse 1" class="cls-2" cx="90.5" cy="90.5" r="90.5" transform="translate(9 6)"/>
      <circle id="Ellipse_2" data-name="Ellipse 2" class="cls-3" cx="90.5" cy="90.5" r="90.5" transform="translate(5)"/>
      <path id="Path_1" data-name="Path 1" class="cls-4" d="M15.5,5A7.507,7.507,0,0,0,8,12.5v6.429A1.072,1.072,0,0,0,9.071,20H20857V47.857h-7.5A5.369,5.369,0,0,0,8,53.214V96.071a5.369,5.369,0,0,0,5.357,5.357H92.643A5.369,5.369,0,0,0,98,96.071V53.214a5.369,5.369,0,0,0-5.357-5.357h-7.5V12.5a7.507,7.507,0,0,0-7.5-7.5Zm0,2.143h.67a1.072,1.072,0,0,0,.268.067,5.357,5.357,0,0,1,4.42,5.29v5.357H10.143V12.5A5.322,5.322,0,0,1,15.5,7.143Zm5.123,0h57.02A5.322,5.322,0,0,1,83,12.5v46L53,80.8,23,58.5v-46A7.408,7.408,0,0,0,20.623,7.143ZM46.036,28.571a2.679,2.679,0,1,0,2.679,2.679A2.679,2.679,0,0,0,46.036,28.571Zm13.929,0a2.679,2.679,0,1,0,2.679,2679A2.679,2.679,0,0,0,59.964,28.571Zm4.754,10.647a1.072,1.072,0,0,0-.837569,12.953,12.953,0,0,1-21.763,0,1.069,1.069,0,1,0-1.808,1.138,15.082,15082,0,0,0,25.379,0,1.072,1.072,0,0,0-.971-1.708ZM13.357,50h7.5v6.9l-8.839-6.6A3.314,3.314,0,0,1,13.357,50Zm71.786,0h7.5a3.314,3.314,0,0,1,1.339.3l-8.839,6.6Zm-74.7,1.808a1.072,1.072,0,0,0,.134.1L37.263,71.73,10.478,97.444l-.033.033a3.278,3.278,0,0,1-.3-1.406V53.214A3.184,3.184,0,0,1,10.444,51.808Zm85.112.034a3.16,3.16,0,0,1,.3,1.373V96.071a3.28,3.28,0,0,1-.3,1.406l-.034-.033L68.737,71.73,95.422,51.909a1.071,1.071,0,0,0,.134-.067ZM38.971,73,52.364,82.98a1.072,1.072,0,0,0,1.272,0L67.029,73a1.072,1.072,0,0,0,.234.268L94.049,98.984a3.28,3.28,0,0,1-1.406.3H13.357a3.28,3.28,0,0,1-1.406-.3L38.737,73.27A1.072,1.072,0,0,0,38.971,73Z" transform="translate(43 37)"/>
    </g>
  </g>
</svg>
