<svg xmlns="http://www.w3.org/2000/svg" xmlns:xlink="http://www.w3.org/1999/xlink" viewBox="48 0 34 34">
  <defs>
    <style>
      .cls-1 {
        clip-path: url(#clip-Work_Allocation);
      }

      .cls-2 {
        fill: #fff;
      }
    </style>
    <clipPath id="clip-Work_Allocation">
      <rect x="48" width="34" height="34"/>
    </clipPath>
  </defs>
  <g id="Work_Allocation" data-name="Work Allocation" class="cls-1">
    <g id="Group_2" data-name="Group 2" transform="translate(22 -99)">
      <path id="Path_1749" data-name="Path 1749" class="cls-2" d="M20.192,5.055A2.786,2.786,0,0,0,21.4,2.848a3.035,3.035,0,0,0-6.059,0,2.712,2.712,0,0,0,1.136,2.207A4.761,4.761,0,0,0,13.3,9.4V11.25h10V9.4A4.426,4.426,0,0,0,20.192,5.055ZM16.557,2.848a1.821,1.821,0,0,1,3.635,0,1.827,1.827,0,0,1-3.635,0Zm5.453,7.263H14.815V9.256A3.531,3.531,0,0,1,18.45,5.839a3.486,3.486,0,0,1,3.635,3.418l-.076.854Z" transform="translate(24.7 103)"/>
      <path id="Path_1750" data-name="Path 1750" class="cls-2" d="M33.542,27.055a2.718,2.718,0,0,0,1.128-2.207,3.012,3.012,0,0,0-6.015,0,2.718,2.718,0,0,0,1.128,2.207A4.687,4.687,0,0,0,26.7,31.4V33.25h10V31.4A4.653,4.653,0,0,0,33.542,27.055Zm-3.609-2.207a1.807,1.807,0,1,1,1.8,1.709A1.783,1.783,0,0,1,29.933,24.848Zm5.414,7.263H28.2v-.854a3.614,3.614,0,0,1,7.218,0v.854Z" transform="translate(21.3 96.167)"/>
      <path id="Path_1751" data-name="Path 1751" class="cls-2" d="M6.792,27.055a2.712,2.712,0,0,0,1.136-2.207A2.952,2.952,0,0,0,4.9,22a2.952,2.952,0,0,0-3.029,2.848,2.712,2.712,0,0,0,1.136,2.207A4.69,4.69,0,0,0-.1,31.4V33.25h10V31.4A4.488,4.488,0,0,0,6.792,27.055ZM3.157,24.848a1.79,1.79,0,0,1,1.818-1.709,1.712,1.712,0,1,1,0,3.418A1.79,1.79,0,0,1,3.157,24.848Zm5.377,7.263H1.339v-.854a3.531,3.531,0,0,1,3.635-3.418,3.486,3.486,0,0,1,3.635,3.418v.854Z" transform="translate(28.1 96.167)"/>
      <path id="Path_1752" data-name="Path 1752" class="cls-2" d="M18.027,23.018V18.6H16.573v4.418H13.3V24.6h8V23.018Z" transform="translate(25.7 97.532)"/>
    </g>
  </g>
</svg>
